<svg width="125" height="42" viewBox="0 0 125 42" fill="none" xmlns="http://www.w3.org/2000/svg">
<path d="M17.181 11.3019C17.181 13.7176 15.4603 15.2181 12.6906 15.2181H6.97181V7.34121H12.6906C15.5025 7.34121 17.181 8.82182 17.181 11.3019ZM17.7509 20.3872C21.8258 19.0098 24.2415 15.6311 24.2415 11.2573C24.2415 5.34095 19.9639 1.20898 13.8395 1.20898H0.414382C0.185449 1.20898 0 1.39443 0 1.62344V32.9558C0 33.1847 0.185449 33.3702 0.414382 33.3702H6.55743C6.78637 33.3702 6.97181 33.1847 6.97181 32.9558V21.3061H10.6691L16.6964 33.1436C16.7673 33.2825 16.9099 33.3702 17.0657 33.3702H23.871C24.0159 33.3702 24.1505 33.2943 24.2253 33.1702C24.3005 33.0461 24.3053 32.8917 24.2378 32.7636L17.7509 20.3872Z" fill="#050C2A"/>
<path d="M31.6958 5.91797C29.4696 5.91797 27.6582 7.74964 27.6582 10.0007C27.6582 12.1655 29.5074 13.9944 31.6958 13.9944C33.9223 13.9944 35.734 12.2029 35.734 10.0007C35.734 7.7115 33.9601 5.91797 31.6958 5.91797Z" fill="#F68921"/>
<path d="M34.6576 16.7168H28.7797C28.5507 16.7168 28.3652 16.9022 28.3652 17.1312V32.9557C28.3652 33.1847 28.5507 33.3701 28.7797 33.3701H34.6576C34.8866 33.3701 35.0721 33.1847 35.0721 32.9557V17.1312C35.0721 16.9022 34.8866 16.7168 34.6576 16.7168Z" fill="#F68921"/>
<path d="M46.8116 10.7988H40.934C40.7051 10.7988 40.5195 10.9843 40.5195 11.2132V32.9558C40.5195 33.1847 40.7051 33.3702 40.934 33.3702H46.8116C47.0406 33.3702 47.226 33.1847 47.226 32.9558V11.2132C47.226 10.9843 47.0406 10.7988 46.8116 10.7988Z" fill="#F68921"/>
<path d="M43.851 0C41.6248 0 39.8135 1.8316 39.8135 4.08272C39.8135 6.24749 41.6626 8.07646 43.851 8.07646C46.0775 8.07646 47.8892 6.28495 47.8892 4.08272C47.8892 1.79353 46.1153 0 43.851 0Z" fill="#F68921"/>
<path d="M69.29 22.0846C69.29 25.5109 67.2899 27.8128 64.3133 27.8128C61.3566 27.8128 59.2916 25.4575 59.2916 22.0846C59.2916 18.6847 61.3097 16.4006 64.3133 16.4006C67.2899 16.4006 69.29 18.6847 69.29 22.0846ZM65.4618 10.3125C62.9186 10.3125 60.6015 11.1993 59.2036 12.6425V11.2131C59.2036 10.9842 59.0181 10.7987 58.7891 10.7987H53.0882C52.8593 10.7987 52.6738 10.9842 52.6738 11.2131V41.3525C52.6738 41.5815 52.8593 41.7669 53.0882 41.7669H58.9658C59.1948 41.7669 59.3802 41.5815 59.3802 41.3525V31.9114C60.7621 33.1718 62.8694 33.9009 65.2412 33.9009C71.5218 33.9009 75.9077 29.0234 75.9077 22.0401C75.9077 15.0254 71.7097 10.3125 65.4618 10.3125Z" fill="#050C2A"/>
<path d="M84.8935 19.1961C85.2194 17.4474 86.7764 15.7382 89.2856 15.7382C92.206 15.7382 93.4599 17.4528 93.695 19.1961H84.8935ZM89.1961 10.1367C86.2861 10.1367 83.5411 11.2889 81.4675 13.3805C79.2877 15.578 78.0879 18.638 78.0879 21.9969C78.0879 25.5822 79.2988 28.646 81.5895 30.8573C83.7124 32.9057 86.6023 34.034 89.7274 34.034C95.759 34.034 99.0012 30.3191 100.023 26.8427C100.088 26.6234 99.9631 26.3935 99.7439 26.3284L94.8386 24.8697C94.6292 24.808 94.4066 24.9197 94.331 25.1254C93.5979 27.1438 92.0638 28.1672 89.771 28.1672C87.1592 28.1672 85.0731 26.4238 84.7451 24.0459H99.8473C100.071 24.0459 100.254 23.8608 100.261 23.6373C100.263 23.6124 100.267 23.553 100.274 23.468C100.298 23.1443 100.349 22.4706 100.349 21.8201C100.349 14.6136 96.0759 10.1367 89.1961 10.1367Z" fill="#050C2A"/>
<path d="M116.554 10.2246C114.671 10.2246 112.291 10.8825 110.693 12.6487V11.2132C110.693 10.9843 110.507 10.7988 110.279 10.7988H104.578C104.349 10.7988 104.163 10.9843 104.163 11.2132V32.9558C104.163 33.1848 104.349 33.3702 104.578 33.3702H110.455C110.684 33.3702 110.869 33.1848 110.869 32.9558V20.4497C110.869 18.412 111.999 16.3561 114.521 16.3561C117.66 16.3561 118.128 18.8103 118.128 20.273V32.9558C118.128 33.1848 118.313 33.3702 118.542 33.3702H124.42C124.649 33.3702 124.834 33.1848 124.834 32.9558V19.2563C124.834 13.6856 121.661 10.2246 116.554 10.2246Z" fill="#050C2A"/>
</svg>
