<svg xmlns="http://www.w3.org/2000/svg" id="Layer_1" data-name="Layer 1" viewBox="0 0 471.0009 212.37688"><defs><style>      .cls-1 {        fill: #72bf45;      }      .cls-2 {        fill: #0e7641;      }    </style></defs><path class="cls-1" d="M191.085,221.91275c2.4327-2.31519,10.39546-10.91323,10.838-12.01483.66463-1.54407-.55264-2.86783-1.32745-4.18976-1.54774-2.75585-20.34845-21.71629-22.559-24.03149-3.9823-4.0796-12.38754-12.34715-12.38754-12.34715a56.68631,56.68631,0,0,0,11.28043.33048,19.66256,19.66256,0,0,0,6.19284-1.54224c8.73756-3.96945,2.10223-19.07244.22216-25.35526-1.88008-6.06249-3.76014-12.01666-5.75037-17.969-.7748-2.31521-1.54959-4.74057-2.54471-6.94562a9.83156,9.83156,0,0,0-1.4376-3.08632c-1.10527-1.10161-5.64021.773-6.41316,1.32376-.55264.44064,3.98046,13.44875,5.75036,18.74012,2.32257,6.94561,8.5154,22.48741,8.18309,25.57557-.33048,3.74729-8.73571,2.42537-11.39058,2.42537-3.20751,0-6.303-.99328-9.51051-.773-.885.11016-3.09735,5.51169-2.87519,7.27609.22032,1.7644,13.0485,13.22843,17.141,17.19788,5.19774,5.29136,19.906,19.0706,20.90111,21.71628.66463,1.65424-6.08086,9.70147-7.63044,11.57419-.55265.773,1.32743,4.0796,3.31766,2.09488m-20.34846-127.876c0-1.1016,2.54469-1.98289,3.42965-1.32192.44064.33048,13.0485,14.55036,19.24136,19.84172s14.9304,12.78779,18.13607,10.47258c4.97741-3.527,3.31766-10.1421,3.65-14.88083,0-.33048.11015-2.205.66463-2.3152.773-.11017,6.303-.99328,6.303-.99328s4.42295,16.64706,7.63044,20.72484c3.20751,4.0796,6.96766,5.51169,9.1782,5.51169,2.21239,0,4.97741-.88129,5.75222-.22032.773.6628.55264,3.08816-.66464,4.18977a10.52455,10.52455,0,0,1-6.303,2.09488A14.10631,14.10631,0,0,1,228.244,133.061c-3.65-3.527-5.75038-8.26753-7.52029-12.89794.33232.88312-.44248,3.08633-.885,3.74912-1.99023,3.41681-5.64021,6.83362-9.84283,6.50314-3.8703-.33048-7.7406-2.64569-10.72594-4.96089a54.8026,54.8026,0,0,1-4.7571-4.07777c-9.1782-8.93034-23.77628-26.3467-23.77628-27.34m86.03894-34.7244c-.11018-.44063,5.75036-.99143,6.303-.99143s3.53981,7.38625,12.82818,8.598c8.84772,1.1016,13.82513-3.96945,17.91575-11.24371,4.42478-7.937,19.35335-42.55313,20.791-42.99377s6.30483,1.7644,6.30483,2.64568V39.91125c0,3.41681,1.4376,32.18887,5.19775,36.4888,3.09549,3.527,6.52332,1.43209,10.06316.22031,4.97556-1.7644,10.06313-4.96088,15.26088-5.844.88494-.11016,2.65486,5.73385,2.54286,6.72529-.11016.99145-48.65785,79.37057-49.43264,79.37057s-2.32255-.88128-2.10039-1.87273c.33047-.99328,39.36948-69.89126,39.36948-70.77255,0-.33232-6.30483,1.98289-6.85748,2.09306-3.538.99328-8.84587,1.87455-12.49586-1.76258-5.6402-5.62368-7.188-21.71812-7.74244-27.34-1.65791-19.18076-1.4376-25.35525-1.4376-25.35525-4.31278,8.71-9.17818,19.07244-13.93346,27.5603-3.65,6.393-8.40522,11.90651-15.70336,14.10971-3.09733.99328-7.63045,1.43392-10.83794.22033a26.85749,26.85749,0,0,1-9.068-5.28955s-7.96277,46.62907-8.18492,46.95955c-.99512.99328-3.98046.112-3.98046-1.21177.22214-1.54408,7.74059-44.75633,5.19773-54.89844" transform="translate(-20.77778 -12.62385)"></path><path class="cls-2" d="M105.59945,199.53569c0-14.22171,6.415-24.80445,19.35335-24.80445s20.12813,9.70146,20.12813,25.68573c0,14.21988-6.30484,24.47214-19.68565,24.47214-13.8233,0-19.79583-10.58275-19.79583-25.35342m19.68567,21.496c10.61579,0,13.60113-9.70146,13.60113-20.28421,0-11.57418-3.09551-22.04676-13.93345-22.04676-10.39547,0-13.27065,10.6929-13.27065,19.95188,0,12.01666,3.42781,22.37909,13.603,22.37909M96.08893,223.7875a33.91855,33.91855,0,0,1-8.73572,1.10161c-19.35334,0-23.00332-13.99955-23.00332-26.12638,0-16.7554,7.41012-23.92133,18.24807-23.92133,13.38082,0,15.371,10.58274,15.371,15.32331H91.00136c0-3.96945,0-11.35386-8.95787-11.35386-9.28836,0-11.50075,9.91994-11.50075,18.96044,0,13.44875,6.63533,23.15021,18.35823,23.15021a23.90161,23.90161,0,0,0,7.29813-1.10344v3.96944Zm-41.692,0a42.70317,42.70317,0,0,1-10.06316,1.10161c-15.70336,0-23.556-9.14882-23.556-26.23654,0-13.88939,5.08757-23.81117,18.57855-23.81117,8.07292,0,15.92552,4.63041,15.92552,19.1826H26.97063c0,23.14837,12.3857,26.8975,18.80071,26.8975a28.33365,28.33365,0,0,0,8.73571-1.2136v4.0796Zm-5.19774-33.84311c0-3.74913-1.21727-11.2437-10.61579-11.2437-9.29019,0-10.94994,7.71673-11.17026,11.2437Z" transform="translate(-20.77778 -12.62385)"></path><path class="cls-2" d="M486.24863,216.40088h-.22216a15.90507,15.90507,0,0,1-13.8233,8.59985c-7.74062,0-12.82818-5.844-12.82818-12.12682,0-9.15066,8.18308-15.65379,26.87364-15.65379v-3.19649c0-7.49642,0-15.21315-9.84284-15.21315-7.74061,0-8.73571,4.96089-8.95788,8.81834h-6.96582c.66282-5.18121,3.31583-12.78779,16.58833-12.78779,13.04852,0,14.70825,8.4897,14.70825,16.53691v32.51935h-5.53Zm0-15.32331c-4.64509,0-20.68079.11016-20.68079,11.02522,0,4.84889,3.76015,7.82689,8.40524,7.82689,9.17819,0,12.27555-9.371,12.27555-16.09627Zm-45.0097,13.0081h-.22216c-.773,3.30849-5.08575,10.91506-13.93346,10.91506-12.93834,0-15.92552-12.89794-15.92552-24.80445,0-14.21987,5.19772-25.35525,16.92064-25.35525,9.068,0,12.16537,7.60658,13.05032,10.69291h.22034V154.44851h5.53v69.44878h-5.53v-9.81162Zm-13.82331,6.94562c8.18309,0,13.82331-9.92178,13.82331-21.60613,0-5.84217-4.09247-20.61468-12.93836-20.61468-8.07475,0-11.06008,10.47258-11.06008,21.82644.11015,9.371,2.21236,20.39437,10.17513,20.39437m-34.83639-4.63041h-.22216a15.905,15.905,0,0,1-13.82328,8.59985c-7.74061,0-12.82821-5.844-12.82821-12.12682,0-9.15066,8.18309-15.65379,26.87365-15.65379v-3.19649c0-7.49642,0-15.21315-9.84282-15.21315-7.74061,0-8.73574,4.96089-8.9579,8.81834h-6.96579c.66278-5.18121,3.31765-12.78779,16.58833-12.78779,13.04849,0,14.70822,8.4897,14.70822,16.53691v32.51935h-5.53Zm0-15.32331c-4.64509,0-20.68079.11016-20.68079,11.02522,0,4.84889,3.76015,7.82689,8.40524,7.82689,9.17821,0,12.27555-9.371,12.27555-16.09627Zm-67.68073-12.125h.22216c1.21544-3.52881,5.9707-14.22171,15.9237-14.22171,11.06011,0,12.16536,9.371,12.16536,15.65379v33.40247h-5.53V191.81859c0-5.84218-.55263-12.01667-7.63045-12.01667-9.953,0-15.15073,16.75723-15.15073,22.37909v21.60612h-5.53V175.83431h5.53Zm-27.86875,27.4483h-.22031a15.90858,15.90858,0,0,1-13.82513,8.59985c-7.74061,0-12.82817-5.844-12.82817-12.12682,0-9.15066,8.1849-15.65379,26.87361-15.65379v-3.19649c0-7.49642,0-15.21315-9.84281-15.21315-7.74061,0-8.73572,4.96089-8.95788,8.81834h-6.96582c.66281-5.18121,3.31768-12.78779,16.58833-12.78779,13.04849,0,14.70825,8.4897,14.70825,16.53691v32.51935h-5.53007Zm0-15.32331c-4.64509,0-20.68076.11016-20.68076,11.02522,0,4.84889,3.76015,7.82689,8.40524,7.82689,9.18,0,12.27552-9.371,12.27552-16.09627Zm-37.93187,22.70956a33.91879,33.91879,0,0,1-8.73573,1.10161c-19.35335,0-23.00333-13.99955-23.00333-26.12454,0-16.75723,7.41012-23.92317,18.24623-23.92317,13.38264,0,15.37287,10.58274,15.37287,15.32331h-6.96763c0-3.96761,0-11.35386-8.95787-11.35386-9.28835,0-11.50074,9.92178-11.50074,18.96044,0,13.44875,6.63532,23.15021,18.35823,23.15021a23.95481,23.95481,0,0,0,7.29812-1.10161v3.96761Z" transform="translate(-20.77778 -12.62385)"></path></svg>