<?xml version="1.0" encoding="utf-8"?>
<!-- Generator: Adobe Illustrator 27.3.1, SVG Export Plug-In . SVG Version: 6.00 Build 0)  -->
<svg version="1.1" id="Layer_1" xmlns="http://www.w3.org/2000/svg" xmlns:xlink="http://www.w3.org/1999/xlink" x="0px" y="0px"
	 width="200px" height="90px" viewBox="0 0 200 90" style="enable-background:new 0 0 200 90;" xml:space="preserve">
<style type="text/css">
	.st0{fill:#14264B;}
	.st1{fill:url(#SVGID_1_);}
</style>
<g>
	<g>
		<path class="st0" d="M5.2,37.2H0.4c-0.1,0-0.2,0-0.3,0.1C0,37.5,0,37.5,0,37.7v22.5c0,0.1,0,0.2,0.1,0.3c0.1,0.1,0.2,0.1,0.3,0.1
			h4.7c0.1,0,0.2,0,0.3-0.1c0.1-0.1,0.1-0.2,0.1-0.3V37.6c0-0.1,0-0.2-0.1-0.3C5.4,37.3,5.3,37.2,5.2,37.2z"/>
		<path class="st0" d="M16.2,42.7c0.6-0.7,1.4-1,2.5-1c1,0,1.8,0.3,2.5,0.9c0.6,0.6,0.9,1.4,0.9,2.5c0,0.3,0.1,0.3,0.4,0.3l4.7-0.3
			c0.1,0,0.2,0,0.3-0.1c0.1-0.1,0.1-0.2,0.1-0.3c0-1.6-0.4-2.9-1.1-4.1c-0.7-1.2-1.8-2.1-3.1-2.8c-1.4-0.7-2.9-1-4.7-1
			c-1.8,0-3.4,0.3-4.7,1c-1.4,0.7-2.4,1.7-3.1,2.9c-0.7,1.3-1.1,2.7-1.1,4.4v7.2c0,1.7,0.4,3.1,1.1,4.4c0.7,1.3,1.8,2.3,3.1,2.9
			c1.4,0.7,2.9,1,4.7,1c1.8,0,3.4-0.3,4.7-1c1.4-0.7,2.4-1.6,3.1-2.8c0.7-1.2,1.1-2.6,1.1-4.2c0-0.1,0-0.2-0.1-0.2
			c-0.1-0.1-0.2-0.1-0.3-0.1l-4.7-0.2c-0.3,0-0.4,0.1-0.4,0.3c0,1-0.3,1.8-0.9,2.5c-0.6,0.6-1.4,0.9-2.5,0.9c-1,0-1.8-0.3-2.5-0.9
			c-0.6-0.6-0.9-1.4-0.9-2.5V45C15.2,44.1,15.5,43.3,16.2,42.7z"/>
		<path class="st0" d="M46.6,37.2H29.3c-0.1,0-0.2,0-0.3,0.1c-0.1,0.1-0.1,0.2-0.1,0.3v4c0,0.1,0,0.2,0.1,0.3
			c0.1,0.1,0.2,0.1,0.3,0.1h5.6c0.1,0,0.2,0,0.2,0.2v18c0,0.1,0,0.2,0.1,0.3c0.1,0.1,0.2,0.1,0.3,0.1h4.7c0.1,0,0.2,0,0.3-0.1
			c0.1-0.1,0.1-0.2,0.1-0.3v-18c0-0.1,0-0.2,0.2-0.2h5.7c0.1,0,0.2,0,0.3-0.1c0.1-0.1,0.1-0.2,0.1-0.3v-4c0-0.1,0-0.2-0.1-0.3
			C46.8,37.3,46.7,37.2,46.6,37.2z"/>
		<path class="st0" d="M65.8,52.6L61,52.4c-0.3,0-0.4,0.1-0.4,0.3c0,1-0.3,1.8-0.9,2.5c-0.6,0.6-1.4,0.9-2.5,0.9
			c-1,0-1.8-0.3-2.5-0.9c-0.6-0.6-0.9-1.4-0.9-2.5v-7.6c0-1,0.3-1.8,0.9-2.5c0.6-0.7,1.4-1,2.5-1c1,0,1.8,0.3,2.5,0.9
			c0.6,0.6,0.9,1.4,0.9,2.5c0,0.3,0.1,0.3,0.4,0.3l4.7-0.3c0.1,0,0.2,0,0.3-0.1c0.1-0.1,0.1-0.2,0.1-0.3c0-1.6-0.4-2.9-1.1-4.1
			c-0.7-1.2-1.8-2.1-3.1-2.8c-1.4-0.7-2.9-1-4.7-1s-3.4,0.3-4.7,1c-1.4,0.7-2.4,1.7-3.1,2.9s-1.1,2.7-1.1,4.4v7.2
			c0,1.7,0.4,3.1,1.1,4.4c0.7,1.3,1.8,2.3,3.1,2.9c1.4,0.7,2.9,1,4.7,1s3.4-0.3,4.7-1c1.4-0.7,2.4-1.6,3.1-2.8
			c0.7-1.2,1.1-2.6,1.1-4.2c0-0.1,0-0.2-0.1-0.2C66,52.6,65.9,52.6,65.8,52.6z"/>
	</g>
	<g>
		<path class="st0" d="M138.9,42.7c0.6-0.7,1.4-1,2.5-1c1,0,1.8,0.3,2.5,0.9c0.6,0.6,0.9,1.4,0.9,2.5c0,0.3,0.1,0.3,0.4,0.3l4.7-0.3
			c0.1,0,0.2,0,0.3-0.1c0.1-0.1,0.1-0.2,0.1-0.3c0-1.6-0.4-2.9-1.1-4.1c-0.7-1.2-1.8-2.1-3.1-2.8c-1.4-0.7-2.9-1-4.7-1
			c-1.8,0-3.4,0.3-4.7,1c-1.4,0.7-2.4,1.7-3.1,2.9c-0.7,1.3-1.1,2.7-1.1,4.4v7.2c0,1.7,0.4,3.1,1.1,4.4c0.7,1.3,1.8,2.3,3.1,2.9
			c1.4,0.7,2.9,1,4.7,1s3.4-0.3,4.7-1c1.4-0.7,2.4-1.6,3.1-2.8c0.7-1.2,1.1-2.6,1.1-4.2c0-0.1,0-0.2-0.1-0.2
			c-0.1-0.1-0.2-0.1-0.3-0.1l-4.7-0.2c-0.3,0-0.4,0.1-0.4,0.3c0,1-0.3,1.8-0.9,2.5c-0.6,0.6-1.4,0.9-2.5,0.9c-1,0-1.8-0.3-2.5-0.9
			c-0.6-0.6-0.9-1.4-0.9-2.5V45C137.9,44.1,138.2,43.3,138.9,42.7z"/>
		<path class="st0" d="M169.3,37.2H152c-0.1,0-0.2,0-0.3,0.1c-0.1,0.1-0.1,0.2-0.1,0.3v4c0,0.1,0,0.2,0.1,0.3
			c0.1,0.1,0.2,0.1,0.3,0.1h5.6c0.1,0,0.2,0,0.2,0.2v18c0,0.1,0,0.2,0.1,0.3c0.1,0.1,0.2,0.1,0.3,0.1h4.7c0.1,0,0.2,0,0.3-0.1
			c0.1-0.1,0.1-0.2,0.1-0.3v-18c0-0.1,0-0.2,0.2-0.2h5.8c0.1,0,0.2,0,0.3-0.1c0.1-0.1,0.1-0.2,0.1-0.3v-4c0-0.1,0-0.2-0.1-0.3
			C169.5,37.3,169.4,37.2,169.3,37.2z"/>
		<path class="st0" d="M177.6,37.2h-4.7c-0.1,0-0.2,0-0.3,0.1c-0.1,0.1-0.1,0.2-0.1,0.3v22.5c0,0.1,0,0.2,0.1,0.3
			c0.1,0.1,0.2,0.1,0.3,0.1h4.7c0.1,0,0.2,0,0.3-0.1c0.1-0.1,0.1-0.2,0.1-0.3V37.6c0-0.1,0-0.2-0.1-0.3
			C177.8,37.3,177.7,37.2,177.6,37.2z"/>
		<path class="st0" d="M199.6,52.6l-4.7-0.2c-0.3,0-0.4,0.1-0.4,0.3c0,1-0.3,1.8-0.9,2.5c-0.6,0.6-1.4,0.9-2.5,0.9
			c-1,0-1.8-0.3-2.5-0.9c-0.6-0.6-0.9-1.4-0.9-2.5v-7.6c0-1,0.3-1.8,0.9-2.5c0.6-0.7,1.4-1,2.5-1c1,0,1.8,0.3,2.5,0.9
			c0.6,0.6,0.9,1.4,0.9,2.5c0,0.3,0.1,0.3,0.4,0.3l4.7-0.3c0.1,0,0.2,0,0.3-0.1c0.1-0.1,0.1-0.2,0.1-0.3c0-1.6-0.4-2.9-1.1-4.1
			c-0.7-1.2-1.8-2.1-3.1-2.8c-1.4-0.7-2.9-1-4.7-1s-3.4,0.3-4.7,1c-1.4,0.7-2.4,1.7-3.1,2.9c-0.7,1.3-1.1,2.7-1.1,4.4v7.2
			c0,1.7,0.4,3.1,1.1,4.4c0.7,1.3,1.8,2.3,3.1,2.9c1.4,0.7,2.9,1,4.7,1c1.8,0,3.4-0.3,4.7-1c1.4-0.7,2.4-1.6,3.1-2.8
			c0.7-1.2,1.1-2.6,1.1-4.2c0-0.1,0-0.2-0.1-0.2C199.8,52.6,199.7,52.6,199.6,52.6z"/>
	</g>
	
		<linearGradient id="SVGID_1_" gradientUnits="userSpaceOnUse" x1="84.6603" y1="61.5947" x2="113.9924" y2="32.2626" gradientTransform="matrix(1 0 0 -1 0 91)">
		<stop  offset="0" style="stop-color:#D5224F"/>
		<stop  offset="0.1894" style="stop-color:#D32350"/>
		<stop  offset="0.3415" style="stop-color:#CC2755"/>
		<stop  offset="0.4807" style="stop-color:#C12D5C"/>
		<stop  offset="0.6122" style="stop-color:#B13366"/>
		<stop  offset="0.7383" style="stop-color:#9C3A73"/>
		<stop  offset="0.8604" style="stop-color:#824083"/>
		<stop  offset="0.9771" style="stop-color:#5F4597"/>
		<stop  offset="1" style="stop-color:#56469C"/>
	</linearGradient>
	<path class="st1" d="M99.3,44.9c-1.6,0-2.9-1.3-2.9-2.9s1.3-2.9,2.9-2.9s2.9,1.3,2.9,2.9S100.9,44.9,99.3,44.9z M123.4,48.3
		l-2.6-1.2c0,0,0-0.1,0-0.2c0.2-0.7,1.9-6.7,1.9-6.7l0.4-1.3c0.1-0.4-0.2-0.8-0.7-0.7l-1.3,0.3c-0.2,0-3.7,0.8-5.3,1.2
		c-0.3-0.6-1.4-3.1-1.4-3.1l-0.5-1c-0.2-0.3-0.6-0.4-0.9-0.2l-4.4,4.2l1.7-11.5c0.1-0.5-0.4-0.8-0.8-0.6l-1.4,0.9
		c0,0-2.7,1.6-3.7,2.1l0,0c-0.3-0.4-2.3-4.3-4-7.8l-0.7-1.4c-0.2-0.4-0.8-0.4-1,0l-0.7,1.4c-1.7,3.4-3.7,7.3-4,7.8
		c-1-0.5-3.7-2.1-3.7-2.1L89,27.5c-0.4-0.2-0.9,0.1-0.8,0.6l1.7,11.5l-4.4-4.2c-0.3-0.3-0.7-0.2-0.9,0.2l-0.5,1c0,0-1.1,2.5-1.4,3.1
		c-1.4-0.3-5.1-1.1-5.3-1.2l-1.3-0.3c-0.4-0.1-0.8,0.3-0.7,0.7l0.3,1.3c0.1,0.3,1.7,5.9,2,6.8c0,0,0,0,0,0.1l-2.6,1.2
		c-0.3,0.2-0.4,0.7-0.1,0.9L76,50c0,0,3.3,3,6.1,5.5c0-0.2,0-0.3,0-0.5c0-0.8,0.1-1.7,0.3-2.4c0-0.2,0-0.4-0.2-0.6
		c-1.1-1-2.1-1.9-2.9-2.7c1.3-0.7,1.6-1.8,1-3.3c-0.1-0.4-0.7-2.5-1.3-4.4c1.3,0.3,2.7,0.6,3.2,0.7c1.2,0.4,2.2-0.1,2.8-1.4
		c0.1-0.2,0.4-0.8,0.7-1.5l4.1,4c0.4,0.4,1,0.7,1.7,0.5c0.9-0.2,1.5-1.1,1.4-2l-1.5-9.8c0.6,0.3,1,0.6,1.4,0.8
		c0.5,0.3,1.2,0.7,2,0.4c0.9-0.3,1.4-1.1,1.6-1.4c0.4-0.7,1.8-3.4,2.9-5.5c1.1,2.1,2.5,4.8,2.9,5.5c0.2,0.3,0.7,1.2,1.6,1.4
		c0.9,0.2,1.7-0.2,2-0.4c0.3-0.2,0.9-0.5,1.4-0.8l-1.4,9.8c-0.1,0.6,0.1,1.2,0.6,1.7c0.7,0.7,1.7,0.6,2.4,0l4.2-4
		c0.3,0.7,0.6,1.3,0.7,1.5c0.7,1.4,1.6,1.8,2.7,1.5c0.5-0.1,2-0.4,3.3-0.7c-0.5,1.7-1.1,4-1.3,4.4c-0.6,1.5-0.3,2.6,1,3.4
		c-1.8,1.7-4.8,4.4-6.8,6.1c-1.1,1-2.4,2-3.8,2.7c-2.3,1.3-4.8,2-7.4,2.3v-2v-5.6v-1.4c-0.7-0.1-1.3-0.1-2-0.1c-0.7,0-1.4,0-2,0.1
		v1.4v5.6v1.9c-1.6-0.2-3.1-0.5-4.6-1c-2.7-1.1-4.4-2.8-4.4-4.4c0-2.6,4.5-5.6,11-5.6c5,0,8.8,1.8,10.3,3.8c0.2-0.1,0.3-0.3,0.5-0.4
		c0.3-0.3,0.7-0.7,1.1-1c0.2-0.2,0.3-0.5,0-0.8c-2.3-2.6-6.8-4.3-12-4.3c-7.7,0-13.7,3.6-13.7,8.3c0,2.8,2.2,5.3,5.7,6.8l0,0l0,0
		c0.1,0,0.2,0,0.2,0.1c1.7,0.7,3.6,1.1,5.7,1.4l0,0v2v2.3v1c0,0.3,0.3,0.6,0.6,0.6h3c0.3,0,0.6-0.3,0.6-0.6v-1v-2.3v-2
		c3-0.3,6-1.2,8.7-2.7c1.5-0.8,3-1.9,4.3-3c2.9-2.6,8.3-7.5,8.3-7.5l0.9-0.8C123.8,48.9,123.7,48.4,123.4,48.3z"/>
</g>
</svg>
