<svg id="Layer_1" data-name="Layer 1" xmlns="http://www.w3.org/2000/svg" viewBox="0 0 500 164"><defs><style>.cls-1{fill:#525fe1;stroke:#525fe1;stroke-miterlimit:10;stroke-width:7px;}.cls-2{fill:#ffd000;}.cls-3{fill:#fff;}.cls-4{fill:#ff7c00;}</style></defs><path class="cls-1" d="M278.88,82a1.28,1.28,0,0,1-1.24,1.24H264V96.83a1.35,1.35,0,0,1-1.24,1.32,1.29,1.29,0,0,1-1.24-1.32V83.19H247.88A1.22,1.22,0,0,1,246.63,82a1.3,1.3,0,0,1,1.25-1.31h13.64V67.06a1.21,1.21,0,0,1,1.24-1.16A1.26,1.26,0,0,1,264,67.06V80.71h13.64A1.33,1.33,0,0,1,278.88,82Z"/><g id="Layer_2" data-name="Layer 2"><circle class="cls-2" cx="386.42" cy="82.02" r="61"/></g><polygon class="cls-3" points="388.36 56.08 375.82 77.41 385.55 66.93 385.3 72.61 398.77 52.9 388.17 62 388.36 56.08"/><path class="cls-3" d="M377.91,103.6a2.16,2.16,0,1,1-1.84-3.31,2.12,2.12,0,0,1,1.81,1l-.68.48a1.35,1.35,0,0,0-1.12-.67,1.34,1.34,0,0,0,0,2.67,1.41,1.41,0,0,0,1.16-.67l.67.49Z"/><path class="cls-3" d="M378.13,102.45a2.17,2.17,0,1,1,2.17,2.17A2.16,2.16,0,0,1,378.13,102.45Zm.89,0a1.27,1.27,0,1,0,1.27-1.33,1.29,1.29,0,0,0-1.27,1.33Z"/><path class="cls-3" d="M384.78,100.36a2.09,2.09,0,1,1,0,4.18h-1.7v-4.18Zm0,3.4a1.31,1.31,0,0,0,0-2.61H384v2.61Z"/><path class="cls-3" d="M387.59,104.54v-4.18h2.22v.79h-1.35v.78H390v.78h-1.57v1.05h1.72v.78h-2.59Z"/><path class="cls-3" d="M395.93,104h-2l-.27.56h-.9l2.2-4.25,2.21,4.25h-.94Zm-1.65-.79h1.27l-.64-1.3Z"/><path class="cls-3" d="M398.39,104.54h-.87v-4.18h.87Z"/><path d="M361.61,80.23V90.44h-2.09v-6l-3.26,2.36L353,84.39v6h-2.09V80.23l5.34,4Z"/><path d="M362.92,90.44,365.67,86a2.87,2.87,0,0,1-2.51-2.84A2.94,2.94,0,0,1,366,80.23a2.87,2.87,0,0,1,2.87,2.88,3.11,3.11,0,0,1-.47,1.59l-2.43,4h3.29v1.77ZM366,84.18a1,1,0,1,0-1-1A1.05,1.05,0,0,0,366,84.18Z"/><path d="M381.23,80.23V90.44h-2.09v-6l-3.26,2.36-3.26-2.36v6h-2.09V80.23l5.35,4,5.35-4Z"/><path d="M390.59,90.44V82.29h-2.48V80.4h7.21v1.89h-2.64v8.15Z"/><path d="M396.53,90.44v-10h5.34v1.89h-3.25v1.87h3.77v1.89h-3.77v2.5h4.14v1.89Z"/><path d="M413.4,88.18A5.21,5.21,0,0,1,409,90.61a5.19,5.19,0,0,1,0-10.38,5.08,5.08,0,0,1,4.34,2.43l-1.64,1.16a3.21,3.21,0,0,0-2.69-1.6,3.21,3.21,0,0,0,0,6.4,3.35,3.35,0,0,0,2.79-1.6l1.62,1.16Z"/><path d="M416.73,80.4v3.76h4.6V80.4h2.09v10h-2.09V86.05h-4.6v4.39h-2.09v-10Z"/><path d="M70.13,70.06c0,3-2.15,4.89-5.61,4.89H57.38V65.12h7.14C68,65.12,70.13,67,70.13,70.06Zm.71,11.35A11.51,11.51,0,0,0,79,70c0-7.39-5.34-12.55-13-12.55H49.18a.51.51,0,0,0-.51.52V97.1a.51.51,0,0,0,.51.51h7.68a.52.52,0,0,0,.52-.51V82.55H62l7.53,14.78a.5.5,0,0,0,.46.28h8.5a.52.52,0,0,0,.46-.75Z"/><path class="cls-4" d="M88.26,63.34a5,5,0,0,0,0,10.09,5,5,0,1,0,0-10.09Z"/><path class="cls-4" d="M92,76.82H84.62a.52.52,0,0,0-.52.52V97.09a.52.52,0,0,0,.52.52H92a.52.52,0,0,0,.52-.52V77.34A.52.52,0,0,0,92,76.82Z"/><path class="cls-4" d="M107.15,69.44H99.81a.51.51,0,0,0-.52.51V97.1a.51.51,0,0,0,.52.51h7.34a.52.52,0,0,0,.52-.51V70A.52.52,0,0,0,107.15,69.44Z"/><path class="cls-4" d="M103.45,56a5,5,0,1,0,0,10.09,5,5,0,0,0,0-10.09Z"/><path d="M135.23,83.52c0,4.28-2.5,7.15-6.22,7.15s-6.27-2.94-6.27-7.15,2.52-7.09,6.27-7.09S135.23,79.28,135.23,83.52Zm-4.78-14.69a10.94,10.94,0,0,0-7.82,2.91V70a.52.52,0,0,0-.52-.52H115a.52.52,0,0,0-.52.52v37.63a.52.52,0,0,0,.52.52h7.34a.52.52,0,0,0,.52-.52V95.79a10.85,10.85,0,0,0,7.32,2.49c7.85,0,13.33-6.09,13.33-14.81S138.25,68.83,130.45,68.83Z"/><path d="M154.72,79.92a5.38,5.38,0,0,1,5.49-4.32c3.65,0,5.21,2.14,5.51,4.32Zm5.38-11.31a13.49,13.49,0,0,0-9.66,4,15.09,15.09,0,0,0-4.22,10.75,14.92,14.92,0,0,0,4.37,11.06,14.54,14.54,0,0,0,10.17,4c7.54,0,11.59-4.64,12.86-9a.51.51,0,0,0-.35-.64L167.15,87a.52.52,0,0,0-.64.32,5.5,5.5,0,0,1-5.69,3.8A6.12,6.12,0,0,1,154.54,86H173.4a.53.53,0,0,0,.52-.51s0-.11,0-.21c0-.41.09-1.25.09-2.06C174,74.19,168.69,68.61,160.1,68.61Z"/><path d="M194.28,68.72a10,10,0,0,0-7.33,3V70a.51.51,0,0,0-.51-.51h-7.13a.51.51,0,0,0-.51.51V97.1a.51.51,0,0,0,.51.51h7.35a.51.51,0,0,0,.51-.51V81.48c0-2.54,1.42-5.11,4.57-5.11,3.92,0,4.5,3.07,4.5,4.89V97.1a.51.51,0,0,0,.52.51h7.34a.51.51,0,0,0,.52-.51V80C204.62,73,200.66,68.72,194.28,68.72Z"/></svg>